<mxfile host="65bd71144e">
    <diagram id="Q17-RViAOiZF65_Yn5EP" name="Page-1">
        <mxGraphModel dx="1211" dy="1424" grid="0" gridSize="10" guides="0" tooltips="1" connect="1" arrows="1" fold="1" page="0" pageScale="1" pageWidth="1100" pageHeight="850" background="#ffffff" math="0" shadow="0">
            <root>
                <mxCell id="0"/>
                <mxCell id="1" parent="0"/>
                <mxCell id="79" value="" style="edgeStyle=none;endArrow=none;endFill=0;shape=link;fontColor=#000000;labelBackgroundColor=#FFFFFF;fontSize=20;html=1;labelBorderColor=none;strokeColor=#000000;strokeWidth=5;" parent="1" source="167" target="169" edge="1">
                    <mxGeometry relative="1" as="geometry">
                        <mxPoint x="293.54984044401954" y="285.2407479910521" as="sourcePoint"/>
                        <mxPoint x="517" y="79.52941176470586" as="targetPoint"/>
                    </mxGeometry>
                </mxCell>
                <mxCell id="77" value="" style="edgeStyle=none;endArrow=none;endFill=0;fontColor=#000000;labelBackgroundColor=#FFFFFF;fontSize=20;html=1;labelBorderColor=none;strokeColor=#000000;strokeWidth=5;startArrow=classic;startFill=1;" parent="1" source="5" target="167" edge="1">
                    <mxGeometry relative="1" as="geometry">
                        <mxPoint x="209.4315502889633" y="280.84137985558414" as="targetPoint"/>
                    </mxGeometry>
                </mxCell>
                <mxCell id="81" value="" style="edgeStyle=none;endArrow=classic;endFill=1;fontColor=#000000;labelBackgroundColor=#FFFFFF;fontSize=20;html=1;labelBorderColor=none;strokeColor=#000000;strokeWidth=5;startArrow=none;startFill=0;" parent="1" source="171" target="170" edge="1">
                    <mxGeometry relative="1" as="geometry">
                        <mxPoint x="710.2135560830768" y="192.10117523361464" as="sourcePoint"/>
                        <mxPoint x="624.1130581297389" y="119" as="targetPoint"/>
                    </mxGeometry>
                </mxCell>
                <mxCell id="82" value="" style="edgeStyle=none;endArrow=none;endFill=0;shape=link;width=3.333333333333334;fontColor=#000000;labelBackgroundColor=#FFFFFF;fontSize=20;html=1;labelBorderColor=none;strokeColor=#000000;strokeWidth=5;" parent="1" source="171" target="178" edge="1">
                    <mxGeometry relative="1" as="geometry">
                        <mxPoint x="793.2892237785293" y="262.66934692818154" as="sourcePoint"/>
                        <mxPoint x="1150" y="62.76069730586369" as="targetPoint"/>
                    </mxGeometry>
                </mxCell>
                <mxCell id="33" value="ID" style="ellipse;whiteSpace=wrap;labelBackgroundColor=#FFFFFF;fontSize=20;html=1;labelBorderColor=none;fillColor=none;strokeColor=#000000;fontColor=#000000;" parent="1" vertex="1">
                    <mxGeometry x="1136" y="-136" width="120" height="80" as="geometry"/>
                </mxCell>
                <mxCell id="62" value="" style="edgeStyle=none;endArrow=none;endFill=0;fontColor=#000000;labelBackgroundColor=#FFFFFF;fontSize=20;html=1;labelBorderColor=none;strokeColor=#000000;strokeWidth=5;" parent="1" source="33" target="178" edge="1">
                    <mxGeometry relative="1" as="geometry">
                        <mxPoint x="1182.4137931034484" y="22" as="targetPoint"/>
                    </mxGeometry>
                </mxCell>
                <mxCell id="63" value="" style="edgeStyle=none;endArrow=none;endFill=0;fontColor=#000000;labelBackgroundColor=#FFFFFF;fontSize=20;html=1;labelBorderColor=none;strokeColor=#000000;strokeWidth=5;" parent="1" source="59" target="178" edge="1">
                    <mxGeometry relative="1" as="geometry">
                        <mxPoint x="1229.5275590551182" y="22" as="targetPoint"/>
                    </mxGeometry>
                </mxCell>
                <mxCell id="59" value="Session_ID" style="ellipse;whiteSpace=wrap;labelBackgroundColor=#FFFFFF;fontSize=20;html=1;labelBorderColor=none;fillColor=none;strokeColor=#000000;fontColor=#000000;" parent="1" vertex="1">
                    <mxGeometry x="928" y="-95" width="120" height="80" as="geometry"/>
                </mxCell>
                <mxCell id="64" value="" style="edgeStyle=none;endArrow=none;endFill=0;fontColor=#000000;labelBackgroundColor=#FFFFFF;fontSize=20;html=1;labelBorderColor=none;strokeColor=#000000;strokeWidth=5;" parent="1" source="60" target="178" edge="1">
                    <mxGeometry relative="1" as="geometry">
                        <mxPoint x="1270" y="64.54901960784309" as="targetPoint"/>
                    </mxGeometry>
                </mxCell>
                <mxCell id="60" value="Title" style="ellipse;whiteSpace=wrap;labelBackgroundColor=#FFFFFF;fontSize=20;html=1;labelBorderColor=none;fillColor=none;strokeColor=#000000;fontColor=#000000;" parent="1" vertex="1">
                    <mxGeometry x="1332" y="-90" width="120" height="80" as="geometry"/>
                </mxCell>
                <mxCell id="86" value="" style="edgeStyle=none;endArrow=none;endFill=0;fontColor=#000000;labelBackgroundColor=#FFFFFF;fontSize=20;html=1;labelBorderColor=none;strokeColor=#000000;strokeWidth=5;" parent="1" source="83" target="5" edge="1">
                    <mxGeometry relative="1" as="geometry"/>
                </mxCell>
                <mxCell id="83" value="Register" style="rhombus;whiteSpace=wrap;labelBackgroundColor=#FFFFFF;fontSize=20;html=1;labelBorderColor=none;fillColor=none;strokeColor=#000000;fontColor=#000000;" parent="1" vertex="1">
                    <mxGeometry x="-119" y="324" width="189" height="80" as="geometry"/>
                </mxCell>
                <mxCell id="85" value="" style="edgeStyle=none;endArrow=none;endFill=0;fontColor=#000000;labelBackgroundColor=#FFFFFF;fontSize=20;html=1;labelBorderColor=none;strokeColor=#000000;strokeWidth=5;startArrow=classicThin;startFill=1;" parent="1" source="9" target="83" edge="1">
                    <mxGeometry relative="1" as="geometry">
                        <mxPoint x="17" y="476" as="targetPoint"/>
                    </mxGeometry>
                </mxCell>
                <mxCell id="26" value="" style="edgeStyle=none;endArrow=none;endFill=0;fontColor=#000000;labelBackgroundColor=#FFFFFF;fontSize=20;html=1;labelBorderColor=none;strokeColor=#000000;strokeWidth=5;" parent="1" source="20" target="169" edge="1">
                    <mxGeometry relative="1" as="geometry">
                        <mxPoint x="517" y="53.67889908256893" as="targetPoint"/>
                    </mxGeometry>
                </mxCell>
                <mxCell id="20" value="ID" style="ellipse;whiteSpace=wrap;labelBackgroundColor=#FFFFFF;fontSize=20;html=1;labelBorderColor=none;fillColor=none;strokeColor=#000000;fontColor=#000000;" parent="1" vertex="1">
                    <mxGeometry x="434" y="-79" width="120" height="80" as="geometry"/>
                </mxCell>
                <mxCell id="27" value="" style="edgeStyle=none;endArrow=none;endFill=0;fontColor=#000000;labelBackgroundColor=#FFFFFF;fontSize=20;html=1;labelBorderColor=none;strokeColor=#000000;strokeWidth=5;" parent="1" source="22" target="169" edge="1">
                    <mxGeometry relative="1" as="geometry">
                        <mxPoint x="637" y="51.246696035242394" as="targetPoint"/>
                    </mxGeometry>
                </mxCell>
                <mxCell id="22" value="Content" style="ellipse;whiteSpace=wrap;labelBackgroundColor=#FFFFFF;fontSize=20;html=1;labelBorderColor=none;fillColor=none;strokeColor=#000000;fontColor=#000000;" parent="1" vertex="1">
                    <mxGeometry x="744" y="-66" width="120" height="80" as="geometry"/>
                </mxCell>
                <mxCell id="28" value="" style="edgeStyle=none;endArrow=none;endFill=0;fontColor=#000000;labelBackgroundColor=#FFFFFF;fontSize=20;html=1;labelBorderColor=none;strokeColor=#000000;strokeWidth=5;" parent="1" source="24" target="169" edge="1">
                    <mxGeometry relative="1" as="geometry">
                        <mxPoint x="560" y="39" as="targetPoint"/>
                    </mxGeometry>
                </mxCell>
                <mxCell id="24" value="Course_ID" style="ellipse;whiteSpace=wrap;labelBackgroundColor=#FFFFFF;fontSize=20;html=1;labelBorderColor=none;fillColor=none;strokeColor=#000000;fontColor=#000000;" parent="1" vertex="1">
                    <mxGeometry x="291" y="-48" width="120" height="80" as="geometry"/>
                </mxCell>
                <mxCell id="29" value="" style="edgeStyle=none;endArrow=none;endFill=0;fontColor=#000000;labelBackgroundColor=#FFFFFF;fontSize=20;html=1;labelBorderColor=none;strokeColor=#000000;strokeWidth=5;" parent="1" source="25" target="169" edge="1">
                    <mxGeometry relative="1" as="geometry">
                        <mxPoint x="606.5652173913043" y="39" as="targetPoint"/>
                    </mxGeometry>
                </mxCell>
                <mxCell id="25" value="Title" style="ellipse;whiteSpace=wrap;labelBackgroundColor=#FFFFFF;fontSize=20;html=1;labelBorderColor=none;fillColor=none;strokeColor=#000000;fontColor=#000000;" parent="1" vertex="1">
                    <mxGeometry x="602" y="-76" width="120" height="80" as="geometry"/>
                </mxCell>
                <mxCell id="185" style="edgeStyle=none;html=1;strokeColor=#000000;strokeWidth=3;fontColor=#000000;startArrow=classic;startFill=1;endArrow=none;endFill=0;" parent="1" source="9" target="179" edge="1">
                    <mxGeometry relative="1" as="geometry"/>
                </mxCell>
                <mxCell id="191" style="edgeStyle=none;html=1;strokeColor=#000000;strokeWidth=3;fontColor=#000000;startArrow=none;startFill=0;endArrow=none;endFill=0;" parent="1" source="9" target="206" edge="1">
                    <mxGeometry relative="1" as="geometry">
                        <mxPoint x="223.20001220703125" y="632" as="targetPoint"/>
                    </mxGeometry>
                </mxCell>
                <mxCell id="9" value="Students" style="rounded=0;whiteSpace=wrap;labelBackgroundColor=#FFFFFF;fontSize=20;html=1;labelBorderColor=none;fillColor=none;strokeColor=#000000;fontColor=#000000;" parent="1" vertex="1">
                    <mxGeometry x="-83" y="601.4100000000001" width="120" height="60" as="geometry"/>
                </mxCell>
                <mxCell id="30" value="" style="edgeStyle=none;endArrow=none;endFill=0;fontColor=#000000;labelBackgroundColor=#FFFFFF;fontSize=20;html=1;labelBorderColor=none;strokeColor=#000000;strokeWidth=5;" parent="1" source="21" target="9" edge="1">
                    <mxGeometry relative="1" as="geometry">
                        <mxPoint x="-186.56952741549026" y="750.9991846242569" as="sourcePoint"/>
                    </mxGeometry>
                </mxCell>
                <mxCell id="21" value="ID" style="ellipse;whiteSpace=wrap;labelBackgroundColor=#FFFFFF;fontSize=20;html=1;labelBorderColor=none;fillColor=none;strokeColor=#000000;fontColor=#000000;" parent="1" vertex="1">
                    <mxGeometry x="-317" y="487" width="120" height="80" as="geometry"/>
                </mxCell>
                <mxCell id="31" value="" style="edgeStyle=none;endArrow=none;endFill=0;fontColor=#000000;labelBackgroundColor=#FFFFFF;fontSize=20;html=1;labelBorderColor=none;strokeColor=#000000;strokeWidth=5;" parent="1" source="23" target="9" edge="1">
                    <mxGeometry relative="1" as="geometry"/>
                </mxCell>
                <mxCell id="23" value="Name" style="ellipse;whiteSpace=wrap;labelBackgroundColor=#FFFFFF;fontSize=20;html=1;labelBorderColor=none;fillColor=none;strokeColor=#000000;fontColor=#000000;" parent="1" vertex="1">
                    <mxGeometry x="-314" y="628.0000000000001" width="120" height="80" as="geometry"/>
                </mxCell>
                <mxCell id="43" value="" style="edgeStyle=none;endArrow=none;endFill=0;fontColor=#000000;labelBackgroundColor=#FFFFFF;fontSize=20;html=1;labelBorderColor=none;strokeColor=#000000;strokeWidth=5;" parent="1" source="32" target="9" edge="1">
                    <mxGeometry relative="1" as="geometry"/>
                </mxCell>
                <mxCell id="32" value="Email" style="ellipse;whiteSpace=wrap;labelBackgroundColor=#FFFFFF;fontSize=20;html=1;labelBorderColor=none;fillColor=none;strokeColor=#000000;fontColor=#000000;" parent="1" vertex="1">
                    <mxGeometry x="-215" y="737.0000000000001" width="120" height="80" as="geometry"/>
                </mxCell>
                <mxCell id="47" value="" style="edgeStyle=none;endArrow=none;endFill=0;fontColor=#000000;labelBackgroundColor=#FFFFFF;fontSize=20;html=1;labelBorderColor=none;strokeColor=#000000;strokeWidth=5;" parent="1" source="35" target="9" edge="1">
                    <mxGeometry relative="1" as="geometry"/>
                </mxCell>
                <mxCell id="35" value="Phone_number" style="ellipse;whiteSpace=wrap;labelBackgroundColor=#FFFFFF;fontSize=20;html=1;labelBorderColor=none;fillColor=none;strokeColor=#000000;fontColor=#000000;" parent="1" vertex="1">
                    <mxGeometry x="-65" y="770" width="165" height="80" as="geometry"/>
                </mxCell>
                <mxCell id="56" value="ID" style="ellipse;whiteSpace=wrap;labelBackgroundColor=#FFFFFF;fontSize=20;html=1;labelBorderColor=none;fillColor=none;strokeColor=#000000;fontColor=#000000;" parent="1" vertex="1">
                    <mxGeometry x="462" y="762" width="120" height="80" as="geometry"/>
                </mxCell>
                <mxCell id="57" value="Session_ID" style="ellipse;whiteSpace=wrap;labelBackgroundColor=#FFFFFF;fontSize=20;html=1;labelBorderColor=none;fillColor=none;strokeColor=#000000;fontColor=#000000;" parent="1" vertex="1">
                    <mxGeometry x="631" y="779" width="120" height="80" as="geometry"/>
                </mxCell>
                <mxCell id="67" value="" style="edgeStyle=none;endArrow=none;endFill=0;fontColor=#000000;labelBackgroundColor=#FFFFFF;fontSize=20;html=1;labelBorderColor=none;strokeColor=#000000;strokeWidth=5;" parent="1" source="56" target="187" edge="1">
                    <mxGeometry relative="1" as="geometry">
                        <mxPoint x="1273" y="737.4099999999999" as="targetPoint"/>
                    </mxGeometry>
                </mxCell>
                <mxCell id="68" value="" style="edgeStyle=none;endArrow=none;endFill=0;fontColor=#000000;labelBackgroundColor=#FFFFFF;fontSize=20;html=1;labelBorderColor=none;strokeColor=#000000;strokeWidth=5;" parent="1" source="57" target="187" edge="1">
                    <mxGeometry relative="1" as="geometry">
                        <mxPoint x="1339.9411764705883" y="737.4099999999999" as="targetPoint"/>
                    </mxGeometry>
                </mxCell>
                <mxCell id="73" value="" style="edgeStyle=none;endArrow=none;endFill=0;fontColor=#000000;labelBackgroundColor=#FFFFFF;fontSize=20;html=1;labelBorderColor=none;strokeColor=#000000;strokeWidth=5;" parent="1" source="72" target="187" edge="1">
                    <mxGeometry relative="1" as="geometry">
                        <mxPoint x="1290.284671532847" y="817.4099999999999" as="targetPoint"/>
                    </mxGeometry>
                </mxCell>
                <mxCell id="72" value="Status" style="ellipse;whiteSpace=wrap;labelBackgroundColor=#FFFFFF;fontSize=20;html=1;labelBorderColor=none;fillColor=none;strokeColor=#000000;fontColor=#000000;" parent="1" vertex="1">
                    <mxGeometry x="837" y="768" width="120" height="80" as="geometry"/>
                </mxCell>
                <mxCell id="5" value="Courses" style="rounded=0;whiteSpace=wrap;labelBackgroundColor=#FFFFFF;fontSize=20;html=1;labelBorderColor=none;fillColor=none;strokeColor=#000000;fontColor=#000000;" parent="1" vertex="1">
                    <mxGeometry x="-83" y="51" width="120" height="60" as="geometry"/>
                </mxCell>
                <mxCell id="15" value="" style="edgeStyle=none;endArrow=none;endFill=0;fontColor=#000000;labelBackgroundColor=#FFFFFF;fontSize=20;html=1;labelBorderColor=none;strokeColor=#000000;strokeWidth=5;" parent="1" source="6" target="5" edge="1">
                    <mxGeometry relative="1" as="geometry"/>
                </mxCell>
                <mxCell id="6" value="&lt;u&gt;ID&lt;/u&gt;" style="ellipse;whiteSpace=wrap;labelBackgroundColor=#FFFFFF;fontSize=20;html=1;labelBorderColor=none;fillColor=none;strokeColor=#000000;fontColor=#000000;" parent="1" vertex="1">
                    <mxGeometry x="-261" y="-238" width="120" height="80" as="geometry"/>
                </mxCell>
                <mxCell id="17" value="" style="edgeStyle=none;endArrow=none;endFill=0;fontColor=#000000;labelBackgroundColor=#FFFFFF;fontSize=20;html=1;labelBorderColor=none;strokeColor=#000000;strokeWidth=5;" parent="1" source="12" target="5" edge="1">
                    <mxGeometry relative="1" as="geometry"/>
                </mxCell>
                <mxCell id="12" value="Name" style="ellipse;whiteSpace=wrap;labelBackgroundColor=#FFFFFF;fontSize=20;html=1;labelBorderColor=none;fillColor=none;strokeColor=#000000;fontColor=#000000;" parent="1" vertex="1">
                    <mxGeometry x="-342" y="-124" width="120" height="80" as="geometry"/>
                </mxCell>
                <mxCell id="18" value="" style="edgeStyle=none;endArrow=none;endFill=0;fontColor=#000000;labelBackgroundColor=#FFFFFF;fontSize=20;html=1;labelBorderColor=none;strokeColor=#000000;strokeWidth=5;" parent="1" source="13" target="5" edge="1">
                    <mxGeometry relative="1" as="geometry"/>
                </mxCell>
                <mxCell id="13" value="Description" style="ellipse;whiteSpace=wrap;labelBackgroundColor=#FFFFFF;fontSize=20;html=1;labelBorderColor=none;fillColor=none;strokeColor=#000000;fontColor=#000000;" parent="1" vertex="1">
                    <mxGeometry x="-352" y="-25" width="120" height="80" as="geometry"/>
                </mxCell>
                <mxCell id="19" value="" style="edgeStyle=none;endArrow=none;endFill=0;fontColor=#000000;labelBackgroundColor=#FFFFFF;fontSize=20;html=1;labelBorderColor=none;strokeColor=#000000;strokeWidth=5;" parent="1" source="14" target="5" edge="1">
                    <mxGeometry relative="1" as="geometry"/>
                </mxCell>
                <mxCell id="14" value="Rate" style="ellipse;whiteSpace=wrap;labelBackgroundColor=#FFFFFF;fontSize=20;html=1;labelBorderColor=none;fillColor=none;strokeColor=#000000;fontColor=#000000;" parent="1" vertex="1">
                    <mxGeometry x="-357" y="84" width="120" height="80" as="geometry"/>
                </mxCell>
                <mxCell id="204" style="edgeStyle=none;html=1;strokeColor=#000000;strokeWidth=3;fontColor=#000000;startArrow=none;startFill=0;endArrow=none;endFill=0;" parent="1" source="10" target="203" edge="1">
                    <mxGeometry relative="1" as="geometry"/>
                </mxCell>
                <mxCell id="10" value="Instructors" style="rounded=0;whiteSpace=wrap;labelBackgroundColor=#FFFFFF;fontSize=20;html=1;labelBorderColor=none;fillColor=none;strokeColor=#000000;fontColor=#000000;" parent="1" vertex="1">
                    <mxGeometry x="1430" y="607" width="120" height="60" as="geometry"/>
                </mxCell>
                <mxCell id="49" value="" style="edgeStyle=none;endArrow=none;endFill=0;fontColor=#000000;labelBackgroundColor=#FFFFFF;fontSize=20;html=1;labelBorderColor=none;strokeColor=#000000;strokeWidth=5;" parent="1" source="34" target="10" edge="1">
                    <mxGeometry relative="1" as="geometry"/>
                </mxCell>
                <mxCell id="34" value="ID" style="ellipse;whiteSpace=wrap;labelBackgroundColor=#FFFFFF;fontSize=20;html=1;labelBorderColor=none;fillColor=none;strokeColor=#000000;fontColor=#000000;" parent="1" vertex="1">
                    <mxGeometry x="1253" y="692" width="120" height="80" as="geometry"/>
                </mxCell>
                <mxCell id="50" value="" style="edgeStyle=none;endArrow=none;endFill=0;fontColor=#000000;labelBackgroundColor=#FFFFFF;fontSize=20;html=1;labelBorderColor=none;strokeColor=#000000;strokeWidth=5;" parent="1" source="36" target="10" edge="1">
                    <mxGeometry relative="1" as="geometry"/>
                </mxCell>
                <mxCell id="36" value="Name" style="ellipse;whiteSpace=wrap;labelBackgroundColor=#FFFFFF;fontSize=20;html=1;labelBorderColor=none;fillColor=none;strokeColor=#000000;fontColor=#000000;" parent="1" vertex="1">
                    <mxGeometry x="1420" y="717" width="120" height="80" as="geometry"/>
                </mxCell>
                <mxCell id="51" value="" style="edgeStyle=none;endArrow=none;endFill=0;fontColor=#000000;labelBackgroundColor=#FFFFFF;fontSize=20;html=1;labelBorderColor=none;strokeColor=#000000;strokeWidth=5;" parent="1" source="38" target="10" edge="1">
                    <mxGeometry relative="1" as="geometry"/>
                </mxCell>
                <mxCell id="38" value="Personal_Level" style="ellipse;whiteSpace=wrap;labelBackgroundColor=#FFFFFF;fontSize=20;html=1;labelBorderColor=none;fillColor=none;strokeColor=#000000;fontColor=#000000;" parent="1" vertex="1">
                    <mxGeometry x="1611" y="706" width="170" height="80" as="geometry"/>
                </mxCell>
                <mxCell id="166" style="edgeStyle=none;html=1;dashed=1;strokeColor=#000000;strokeWidth=3;startArrow=none;startFill=0;endArrow=none;endFill=0;" parent="1" source="163" target="83" edge="1">
                    <mxGeometry relative="1" as="geometry"/>
                </mxCell>
                <mxCell id="163" value="Start_date" style="rounded=0;whiteSpace=wrap;labelBackgroundColor=#FFFFFF;fontSize=20;html=1;labelBorderColor=none;fillColor=none;strokeColor=#000000;fontColor=#000000;" parent="1" vertex="1">
                    <mxGeometry x="-377" y="281" width="120" height="60" as="geometry"/>
                </mxCell>
                <mxCell id="165" style="edgeStyle=none;html=1;startArrow=none;startFill=0;endArrow=none;endFill=0;strokeWidth=3;strokeColor=#000000;dashed=1;" parent="1" source="164" target="83" edge="1">
                    <mxGeometry relative="1" as="geometry"/>
                </mxCell>
                <mxCell id="164" value="End_date" style="rounded=0;whiteSpace=wrap;labelBackgroundColor=#FFFFFF;fontSize=20;html=1;labelBorderColor=none;fillColor=none;strokeColor=#000000;fontColor=#000000;" parent="1" vertex="1">
                    <mxGeometry x="-372" y="372" width="120" height="60" as="geometry"/>
                </mxCell>
                <mxCell id="167" value="&lt;font color=&quot;#000000&quot;&gt;Has&lt;/font&gt;" style="rhombus;whiteSpace=wrap;html=1;fillColor=#FFFFFF;strokeColor=#000000;" parent="1" vertex="1">
                    <mxGeometry x="197" y="42" width="80" height="80" as="geometry"/>
                </mxCell>
                <mxCell id="168" value="" style="rhombus;whiteSpace=wrap;html=1;fillColor=none;strokeColor=#000000;" parent="1" vertex="1">
                    <mxGeometry x="189" y="34" width="97" height="97" as="geometry"/>
                </mxCell>
                <mxCell id="169" value="Session" style="rounded=0;whiteSpace=wrap;labelBackgroundColor=#FFFFFF;fontSize=20;html=1;labelBorderColor=none;fillColor=none;strokeColor=#000000;fontColor=#000000;" parent="1" vertex="1">
                    <mxGeometry x="517" y="51" width="120" height="60" as="geometry"/>
                </mxCell>
                <mxCell id="198" style="edgeStyle=none;html=1;strokeColor=#000000;strokeWidth=3;fontColor=#000000;startArrow=none;startFill=0;endArrow=none;endFill=0;" parent="1" source="170" target="209" edge="1">
                    <mxGeometry relative="1" as="geometry"/>
                </mxCell>
                <mxCell id="170" value="" style="rounded=0;whiteSpace=wrap;labelBackgroundColor=#FFFFFF;fontSize=20;html=1;labelBorderColor=none;fillColor=none;strokeColor=#000000;fontColor=#000000;" parent="1" vertex="1">
                    <mxGeometry x="510" y="44" width="137" height="73" as="geometry"/>
                </mxCell>
                <mxCell id="171" value="" style="rhombus;whiteSpace=wrap;html=1;fillColor=none;strokeColor=#000000;" parent="1" vertex="1">
                    <mxGeometry x="842" y="9" width="105" height="114" as="geometry"/>
                </mxCell>
                <mxCell id="173" value="Has" style="rhombus;whiteSpace=wrap;labelBackgroundColor=#FFFFFF;fontSize=20;html=1;labelBorderColor=none;fillColor=none;strokeColor=#000000;fontColor=#000000;" parent="1" vertex="1">
                    <mxGeometry x="850" y="15" width="92" height="95" as="geometry"/>
                </mxCell>
                <mxCell id="177" value="" style="rounded=0;whiteSpace=wrap;labelBackgroundColor=#FFFFFF;fontSize=20;html=1;labelBorderColor=none;fillColor=none;strokeColor=#000000;fontColor=#000000;" parent="1" vertex="1">
                    <mxGeometry x="1156" y="30" width="137" height="73" as="geometry"/>
                </mxCell>
                <mxCell id="178" value="Assignment" style="rounded=0;whiteSpace=wrap;labelBackgroundColor=#FFFFFF;fontSize=20;html=1;labelBorderColor=none;fillColor=none;strokeColor=#000000;fontColor=#000000;" parent="1" vertex="1">
                    <mxGeometry x="1163" y="37.00000000000006" width="120" height="60" as="geometry"/>
                </mxCell>
                <mxCell id="183" style="edgeStyle=none;html=1;strokeColor=#000000;strokeWidth=3;fontColor=#000000;startArrow=none;startFill=0;endArrow=none;endFill=0;dashed=1;" parent="1" source="179" target="182" edge="1">
                    <mxGeometry relative="1" as="geometry"/>
                </mxCell>
                <mxCell id="179" value="Grade" style="rhombus;whiteSpace=wrap;labelBackgroundColor=#FFFFFF;fontSize=20;html=1;labelBorderColor=none;fillColor=none;strokeColor=#000000;fontColor=#000000;" parent="1" vertex="1">
                    <mxGeometry x="1165" y="228" width="120" height="80" as="geometry"/>
                </mxCell>
                <mxCell id="182" value="Score" style="rounded=0;whiteSpace=wrap;labelBackgroundColor=#FFFFFF;fontSize=20;html=1;labelBorderColor=none;fillColor=none;strokeColor=#000000;fontColor=#000000;" parent="1" vertex="1">
                    <mxGeometry x="1376" y="237" width="120" height="60" as="geometry"/>
                </mxCell>
                <mxCell id="210" value="" style="edgeStyle=none;html=1;startArrow=classic;startFill=1;shape=link;strokeWidth=5;strokeColor=#000000;" edge="1" parent="1">
                    <mxGeometry relative="1" as="geometry">
                        <mxPoint x="1224.8803747444235" y="223.07327046904084" as="sourcePoint"/>
                        <mxPoint x="1224.5892420537893" y="104" as="targetPoint"/>
                    </mxGeometry>
                </mxCell>
                <mxCell id="186" value="" style="rhombus;whiteSpace=wrap;labelBackgroundColor=#FFFFFF;fontSize=20;html=1;labelBorderColor=none;fillColor=none;strokeColor=#000000;fontColor=#000000;" parent="1" vertex="1">
                    <mxGeometry x="1145" y="222" width="160" height="98" as="geometry"/>
                </mxCell>
                <mxCell id="194" style="edgeStyle=none;html=1;strokeColor=#000000;strokeWidth=3;fontColor=#000000;startArrow=none;startFill=0;endArrow=none;endFill=0;shape=link;" parent="1" source="187" target="208" edge="1">
                    <mxGeometry relative="1" as="geometry">
                        <mxPoint x="863.2001037597656" y="503.99993896484375" as="targetPoint"/>
                    </mxGeometry>
                </mxCell>
                <mxCell id="187" value="Attendance" style="rounded=0;whiteSpace=wrap;labelBackgroundColor=#FFFFFF;fontSize=20;html=1;labelBorderColor=none;fillColor=none;strokeColor=#000000;fontColor=#000000;" parent="1" vertex="1">
                    <mxGeometry x="691" y="608" width="120" height="60" as="geometry"/>
                </mxCell>
                <mxCell id="193" style="edgeStyle=none;html=1;strokeColor=#000000;strokeWidth=3;fontColor=#000000;startArrow=none;startFill=0;endArrow=none;endFill=0;shape=link;" parent="1" source="206" target="187" edge="1">
                    <mxGeometry relative="1" as="geometry"/>
                </mxCell>
                <mxCell id="192" value="Student_Attendance" style="rhombus;whiteSpace=wrap;labelBackgroundColor=#FFFFFF;fontSize=20;html=1;labelBorderColor=none;fillColor=none;strokeColor=#000000;fontColor=#000000;" parent="1" vertex="1">
                    <mxGeometry x="179" y="586" width="326" height="95" as="geometry"/>
                </mxCell>
                <mxCell id="196" style="edgeStyle=none;html=1;strokeColor=#000000;strokeWidth=3;fontColor=#000000;startArrow=none;startFill=0;endArrow=none;endFill=0;" parent="1" source="208" target="10" edge="1">
                    <mxGeometry relative="1" as="geometry"/>
                </mxCell>
                <mxCell id="195" value="Instructor_Attendance" style="rhombus;whiteSpace=wrap;labelBackgroundColor=#FFFFFF;fontSize=20;html=1;labelBorderColor=none;fillColor=none;strokeColor=#000000;fontColor=#000000;" parent="1" vertex="1">
                    <mxGeometry x="940" y="589" width="326" height="95" as="geometry"/>
                </mxCell>
                <mxCell id="199" style="edgeStyle=none;html=1;strokeColor=#000000;strokeWidth=3;fontColor=#000000;startArrow=none;startFill=0;endArrow=none;endFill=0;shape=link;" parent="1" source="209" target="200" edge="1">
                    <mxGeometry relative="1" as="geometry"/>
                </mxCell>
                <mxCell id="197" value="Has" style="rhombus;whiteSpace=wrap;labelBackgroundColor=#FFFFFF;fontSize=20;html=1;labelBorderColor=none;fillColor=none;strokeColor=#000000;fontColor=#000000;" parent="1" vertex="1">
                    <mxGeometry x="726" y="214" width="124" height="97" as="geometry"/>
                </mxCell>
                <mxCell id="200" value="" style="rounded=0;whiteSpace=wrap;labelBackgroundColor=#FFFFFF;fontSize=20;html=1;labelBorderColor=none;fillColor=none;strokeColor=#000000;fontColor=#000000;" parent="1" vertex="1">
                    <mxGeometry x="683" y="598" width="139" height="79" as="geometry"/>
                </mxCell>
                <mxCell id="202" style="edgeStyle=none;html=1;strokeColor=#000000;strokeWidth=3;fontColor=#000000;startArrow=none;startFill=0;endArrow=none;endFill=0;dashed=1;" parent="1" source="201" target="186" edge="1">
                    <mxGeometry relative="1" as="geometry"/>
                </mxCell>
                <mxCell id="201" value="Evaluation" style="rounded=0;whiteSpace=wrap;labelBackgroundColor=#FFFFFF;fontSize=20;html=1;labelBorderColor=none;fillColor=none;strokeColor=#000000;fontColor=#000000;" parent="1" vertex="1">
                    <mxGeometry x="1380" y="308" width="120" height="60" as="geometry"/>
                </mxCell>
                <mxCell id="205" style="edgeStyle=none;html=1;strokeColor=#000000;strokeWidth=3;fontColor=#000000;startArrow=none;startFill=0;endArrow=none;endFill=0;shape=link;" parent="1" source="203" target="5" edge="1">
                    <mxGeometry relative="1" as="geometry"/>
                </mxCell>
                <mxCell id="203" value="Teach" style="rhombus;whiteSpace=wrap;labelBackgroundColor=#FFFFFF;fontSize=20;html=1;labelBorderColor=none;fillColor=none;strokeColor=#000000;fontColor=#000000;" parent="1" vertex="1">
                    <mxGeometry x="435" y="333" width="124" height="97" as="geometry"/>
                </mxCell>
                <mxCell id="206" value="" style="rhombus;whiteSpace=wrap;labelBackgroundColor=#FFFFFF;fontSize=20;html=1;labelBorderColor=none;fillColor=none;strokeColor=#000000;fontColor=#000000;" parent="1" vertex="1">
                    <mxGeometry x="152" y="572" width="379" height="130" as="geometry"/>
                </mxCell>
                <mxCell id="208" value="" style="rhombus;whiteSpace=wrap;labelBackgroundColor=#FFFFFF;fontSize=20;html=1;labelBorderColor=none;fillColor=none;strokeColor=#000000;fontColor=#000000;" parent="1" vertex="1">
                    <mxGeometry x="900" y="572" width="379" height="130" as="geometry"/>
                </mxCell>
                <mxCell id="209" value="" style="rhombus;whiteSpace=wrap;labelBackgroundColor=#FFFFFF;fontSize=20;html=1;labelBorderColor=none;fillColor=none;strokeColor=#000000;fontColor=#000000;" parent="1" vertex="1">
                    <mxGeometry x="709" y="198" width="167" height="130" as="geometry"/>
                </mxCell>
            </root>
        </mxGraphModel>
    </diagram>
</mxfile>